<svg xmlns="http://www.w3.org/2000/svg" width="24" height="24" viewBox="0 0 24 24">
  <g id="Group_1" data-name="Group 1" transform="translate(-489 -321)">
    <circle id="Ellipse_1" data-name="Ellipse 1" cx="12" cy="12" r="12" transform="translate(489 321)" fill="#eb5757"/>
    <path id="Path_1" data-name="Path 1" d="M3.662-14,3.477-3.945H2.158L1.982-14ZM2.842.176a1.053,1.053,0,0,1-.767-.312A1.028,1.028,0,0,1,1.758-.9a1.045,1.045,0,0,1,.317-.767,1.045,1.045,0,0,1,.767-.317,1.049,1.049,0,0,1,.762.317A1.037,1.037,0,0,1,3.926-.9,1.021,1.021,0,0,1,3.6-.137,1.058,1.058,0,0,1,2.842.176Z" transform="translate(498.158 339.914)" fill="#fff"/>
  </g>
</svg>
