<svg width="540" height="438" viewBox="0 0 540 438" fill="none" xmlns="http://www.w3.org/2000/svg">
<rect y="-1.52588e-05" width="540" height="438" fill="#C4C4C4"/>
<path d="M164.523 236.477C162.523 236.477 160.722 236.08 159.119 235.284C157.517 234.489 156.233 233.398 155.267 232.011C154.301 230.625 153.773 229.045 153.682 227.273H157.773C157.932 228.852 158.648 230.159 159.92 231.193C161.205 232.216 162.739 232.727 164.523 232.727C165.955 232.727 167.227 232.392 168.341 231.722C169.466 231.051 170.347 230.131 170.983 228.96C171.631 227.778 171.955 226.443 171.955 224.955C171.955 223.432 171.619 222.074 170.949 220.881C170.29 219.676 169.381 218.727 168.222 218.034C167.063 217.341 165.739 216.989 164.25 216.977C163.182 216.966 162.085 217.131 160.96 217.472C159.835 217.801 158.909 218.227 158.182 218.75L154.227 218.273L156.341 201.091H174.477V204.841H159.886L158.659 215.136H158.864C159.58 214.568 160.477 214.097 161.557 213.722C162.636 213.347 163.761 213.159 164.932 213.159C167.068 213.159 168.972 213.67 170.642 214.693C172.324 215.705 173.642 217.091 174.597 218.852C175.562 220.614 176.045 222.625 176.045 224.886C176.045 227.114 175.545 229.102 174.545 230.852C173.557 232.591 172.193 233.966 170.455 234.977C168.716 235.977 166.739 236.477 164.523 236.477ZM181.999 228.841V225.364L197.339 201.091H199.862V206.477H198.158L186.567 224.818V225.091H207.226V228.841H181.999ZM198.43 236V227.784V226.165V201.091H202.453V236H198.43ZM225 236.477C222.432 236.477 220.244 235.778 218.438 234.381C216.631 232.972 215.25 230.932 214.295 228.261C213.341 225.58 212.864 222.341 212.864 218.545C212.864 214.773 213.341 211.551 214.295 208.881C215.261 206.199 216.648 204.153 218.455 202.744C220.273 201.324 222.455 200.614 225 200.614C227.545 200.614 229.722 201.324 231.528 202.744C233.347 204.153 234.733 206.199 235.688 208.881C236.653 211.551 237.136 214.773 237.136 218.545C237.136 222.341 236.659 225.58 235.705 228.261C234.75 230.932 233.369 232.972 231.562 234.381C229.756 235.778 227.568 236.477 225 236.477ZM225 232.727C227.545 232.727 229.523 231.5 230.932 229.045C232.341 226.591 233.045 223.091 233.045 218.545C233.045 215.523 232.722 212.949 232.074 210.824C231.438 208.699 230.517 207.08 229.312 205.966C228.119 204.852 226.682 204.295 225 204.295C222.477 204.295 220.506 205.54 219.085 208.028C217.665 210.506 216.955 214.011 216.955 218.545C216.955 221.568 217.273 224.136 217.909 226.25C218.545 228.364 219.46 229.972 220.653 231.074C221.858 232.176 223.307 232.727 225 232.727ZM277.636 229.727L258.409 210.5L261 207.909L280.227 227.136L277.636 229.727ZM261 229.727L258.409 227.136L277.636 207.909L280.227 210.5L261 229.727ZM301.436 228.841V225.364L316.777 201.091H319.3V206.477H317.595L306.004 224.818V225.091H326.663V228.841H301.436ZM317.868 236V227.784V226.165V201.091H321.891V236H317.868ZM344.847 236.477C342.597 236.477 340.591 236.091 338.83 235.318C337.08 234.545 335.688 233.472 334.653 232.097C333.631 230.71 333.074 229.102 332.983 227.273H337.278C337.369 228.398 337.756 229.369 338.438 230.188C339.119 230.994 340.011 231.619 341.114 232.062C342.216 232.506 343.438 232.727 344.778 232.727C346.278 232.727 347.608 232.466 348.767 231.943C349.926 231.42 350.835 230.693 351.494 229.761C352.153 228.83 352.483 227.75 352.483 226.523C352.483 225.239 352.165 224.108 351.528 223.131C350.892 222.142 349.96 221.369 348.733 220.812C347.506 220.256 346.006 219.977 344.233 219.977H341.438V216.227H344.233C345.619 216.227 346.835 215.977 347.881 215.477C348.938 214.977 349.761 214.273 350.352 213.364C350.955 212.455 351.256 211.386 351.256 210.159C351.256 208.977 350.994 207.949 350.472 207.074C349.949 206.199 349.21 205.517 348.256 205.028C347.313 204.54 346.199 204.295 344.915 204.295C343.71 204.295 342.574 204.517 341.506 204.96C340.449 205.392 339.585 206.023 338.915 206.852C338.244 207.67 337.881 208.659 337.824 209.818H333.733C333.801 207.989 334.352 206.386 335.386 205.011C336.42 203.625 337.773 202.545 339.443 201.773C341.125 201 342.972 200.614 344.983 200.614C347.142 200.614 348.994 201.051 350.54 201.926C352.085 202.79 353.273 203.932 354.102 205.352C354.932 206.773 355.347 208.307 355.347 209.955C355.347 211.92 354.83 213.597 353.795 214.983C352.773 216.369 351.381 217.33 349.619 217.864V218.136C351.824 218.5 353.545 219.437 354.784 220.949C356.023 222.449 356.642 224.307 356.642 226.523C356.642 228.42 356.125 230.125 355.091 231.636C354.068 233.136 352.67 234.318 350.898 235.182C349.125 236.045 347.108 236.477 344.847 236.477ZM374.795 236.477C372.455 236.477 370.386 236.062 368.591 235.233C366.807 234.392 365.415 233.239 364.415 231.773C363.415 230.295 362.92 228.614 362.932 226.727C362.92 225.25 363.21 223.886 363.801 222.636C364.392 221.375 365.199 220.324 366.222 219.483C367.256 218.631 368.409 218.091 369.682 217.864V217.659C368.011 217.227 366.682 216.29 365.693 214.847C364.705 213.392 364.216 211.739 364.227 209.886C364.216 208.114 364.665 206.528 365.574 205.131C366.483 203.733 367.733 202.631 369.324 201.824C370.926 201.017 372.75 200.614 374.795 200.614C376.818 200.614 378.625 201.017 380.216 201.824C381.807 202.631 383.057 203.733 383.966 205.131C384.886 206.528 385.352 208.114 385.364 209.886C385.352 211.739 384.847 213.392 383.847 214.847C382.858 216.29 381.545 217.227 379.909 217.659V217.864C381.17 218.091 382.307 218.631 383.318 219.483C384.33 220.324 385.136 221.375 385.739 222.636C386.341 223.886 386.648 225.25 386.659 226.727C386.648 228.614 386.136 230.295 385.125 231.773C384.125 233.239 382.733 234.392 380.949 235.233C379.176 236.062 377.125 236.477 374.795 236.477ZM374.795 232.727C376.375 232.727 377.739 232.472 378.886 231.96C380.034 231.449 380.92 230.727 381.545 229.795C382.17 228.864 382.489 227.773 382.5 226.523C382.489 225.205 382.148 224.04 381.477 223.028C380.807 222.017 379.892 221.222 378.733 220.642C377.585 220.062 376.273 219.773 374.795 219.773C373.307 219.773 371.977 220.062 370.807 220.642C369.648 221.222 368.733 222.017 368.062 223.028C367.403 224.04 367.08 225.205 367.091 226.523C367.08 227.773 367.381 228.864 367.994 229.795C368.619 230.727 369.511 231.449 370.67 231.96C371.83 232.472 373.205 232.727 374.795 232.727ZM374.795 216.159C376.045 216.159 377.153 215.909 378.119 215.409C379.097 214.909 379.864 214.21 380.42 213.312C380.977 212.415 381.261 211.364 381.273 210.159C381.261 208.977 380.983 207.949 380.438 207.074C379.892 206.187 379.136 205.506 378.17 205.028C377.205 204.54 376.08 204.295 374.795 204.295C373.489 204.295 372.347 204.54 371.369 205.028C370.392 205.506 369.636 206.187 369.102 207.074C368.568 207.949 368.307 208.977 368.318 210.159C368.307 211.364 368.574 212.415 369.119 213.312C369.676 214.21 370.443 214.909 371.42 215.409C372.398 215.909 373.523 216.159 374.795 216.159Z" fill="#222222"/>
</svg>
